<svg xmlns="http://www.w3.org/2000/svg" xmlns:xlink="http://www.w3.org/1999/xlink" width="475" zoomAndPan="magnify" viewBox="0 0 356.25 179.999997" height="240" preserveAspectRatio="xMidYMid meet" version="1.0"><defs><g/><clipPath id="64b7844ab4"><path d="M 22.371094 33.050781 L 215.945312 33.050781 L 215.945312 141.386719 L 22.371094 141.386719 Z M 22.371094 33.050781 " clip-rule="nonzero"/></clipPath><clipPath id="a5123153a2"><path d="M 203.816406 75.914062 L 226.507812 75.914062 L 226.507812 98.605469 L 203.816406 98.605469 Z M 203.816406 75.914062 " clip-rule="nonzero"/></clipPath><clipPath id="8bfa4fa6d7"><path d="M 215.160156 75.914062 C 208.894531 75.914062 203.816406 80.992188 203.816406 87.261719 C 203.816406 93.527344 208.894531 98.605469 215.160156 98.605469 C 221.429688 98.605469 226.507812 93.527344 226.507812 87.261719 C 226.507812 80.992188 221.429688 75.914062 215.160156 75.914062 Z M 215.160156 75.914062 " clip-rule="nonzero"/></clipPath></defs><g clip-path="url(#64b7844ab4)"><path stroke-linecap="butt" transform="matrix(0.348356, 0, 0, 0.348356, 22.371578, 33.04984)" fill="none" stroke-linejoin="miter" d="M -0.00139138 0.00270313 L 555.678628 0.00270313 L 555.678628 311.219397 L -0.00139138 311.219397 Z M -0.00139138 0.00270313 " stroke="#e5522c" stroke-width="21.484495" stroke-opacity="1" stroke-miterlimit="4"/></g><g clip-path="url(#a5123153a2)"><g clip-path="url(#8bfa4fa6d7)"><path fill="#e5522c" d="M 203.816406 75.914062 L 226.507812 75.914062 L 226.507812 98.605469 L 203.816406 98.605469 Z M 203.816406 75.914062 " fill-opacity="1" fill-rule="nonzero"/></g></g><g fill="#000000" fill-opacity="1"><g transform="translate(35.202559, 101.327534)"><g><path d="M 17.578125 -36.03125 C 18.191406 -36.03125 18.628906 -35.882812 18.890625 -35.59375 C 19.160156 -35.3125 19.296875 -34.832031 19.296875 -34.15625 L 19.296875 -3.734375 L 28.125 -3.734375 C 28.738281 -3.734375 29.175781 -3.59375 29.4375 -3.3125 C 29.707031 -3.03125 29.84375 -2.546875 29.84375 -1.859375 C 29.84375 -1.179688 29.707031 -0.703125 29.4375 -0.421875 C 29.175781 -0.140625 28.738281 0 28.125 0 L 6.59375 0 C 5.96875 0 5.519531 -0.140625 5.25 -0.421875 C 4.988281 -0.703125 4.859375 -1.179688 4.859375 -1.859375 C 4.859375 -2.546875 4.988281 -3.03125 5.25 -3.3125 C 5.519531 -3.59375 5.96875 -3.734375 6.59375 -3.734375 L 15.1875 -3.734375 L 15.1875 -32.296875 L 7.6875 -32.296875 C 7.0625 -32.296875 6.613281 -32.4375 6.34375 -32.71875 C 6.082031 -33 5.953125 -33.476562 5.953125 -34.15625 C 5.953125 -34.832031 6.082031 -35.3125 6.34375 -35.59375 C 6.613281 -35.882812 7.0625 -36.03125 7.6875 -36.03125 Z M 17.578125 -36.03125 "/></g></g></g><g fill="#000000" fill-opacity="1"><g transform="translate(68.923183, 101.327534)"><g><path d="M 16.96875 -25.96875 C 20.40625 -25.96875 22.984375 -25.195312 24.703125 -23.65625 C 26.429688 -22.125 27.296875 -19.847656 27.296875 -16.828125 L 27.296875 -5.90625 C 27.296875 -4.457031 27.898438 -3.734375 29.109375 -3.734375 L 30.0625 -3.734375 C 30.6875 -3.734375 31.128906 -3.59375 31.390625 -3.3125 C 31.660156 -3.03125 31.796875 -2.546875 31.796875 -1.859375 C 31.796875 -1.179688 31.660156 -0.703125 31.390625 -0.421875 C 31.128906 -0.140625 30.6875 0 30.0625 0 L 28.3125 0 C 27.125 0 26.101562 -0.296875 25.25 -0.890625 C 24.394531 -1.484375 23.84375 -2.359375 23.59375 -3.515625 C 22.082031 -2.191406 20.453125 -1.171875 18.703125 -0.453125 C 16.960938 0.253906 15.113281 0.609375 13.15625 0.609375 C 11.300781 0.609375 9.664062 0.289062 8.25 -0.34375 C 6.832031 -0.976562 5.71875 -1.898438 4.90625 -3.109375 C 4.101562 -4.316406 3.703125 -5.75 3.703125 -7.40625 C 3.703125 -10.300781 4.734375 -12.4375 6.796875 -13.8125 C 8.867188 -15.195312 11.546875 -15.890625 14.828125 -15.890625 C 17.734375 -15.890625 20.515625 -15.425781 23.171875 -14.5 L 23.171875 -16.828125 C 23.171875 -18.609375 22.671875 -19.914062 21.671875 -20.75 C 20.679688 -21.582031 19.078125 -22 16.859375 -22 C 15.484375 -22 14.054688 -21.804688 12.578125 -21.421875 C 11.097656 -21.035156 9.6875 -20.503906 8.34375 -19.828125 C 8.03125 -19.660156 7.75 -19.578125 7.5 -19.578125 C 6.894531 -19.578125 6.390625 -20.015625 5.984375 -20.890625 C 5.785156 -21.328125 5.6875 -21.695312 5.6875 -22 C 5.6875 -22.632812 6.023438 -23.128906 6.703125 -23.484375 C 8.234375 -24.285156 9.882812 -24.898438 11.65625 -25.328125 C 13.425781 -25.753906 15.195312 -25.96875 16.96875 -25.96875 Z M 14.859375 -12.03125 C 12.753906 -12.03125 11.09375 -11.664062 9.875 -10.9375 C 8.65625 -10.21875 8.046875 -9.070312 8.046875 -7.5 C 8.046875 -6.15625 8.503906 -5.113281 9.421875 -4.375 C 10.347656 -3.632812 11.644531 -3.265625 13.3125 -3.265625 C 16.957031 -3.265625 20.242188 -4.773438 23.171875 -7.796875 L 23.171875 -10.796875 C 21.929688 -11.191406 20.597656 -11.492188 19.171875 -11.703125 C 17.742188 -11.921875 16.304688 -12.03125 14.859375 -12.03125 Z M 14.859375 -12.03125 "/></g></g></g><g fill="#000000" fill-opacity="1"><g transform="translate(102.643808, 101.327534)"><g><path d="M 7.9375 -36.03125 C 8.5625 -36.03125 9.003906 -35.882812 9.265625 -35.59375 C 9.535156 -35.3125 9.671875 -34.832031 9.671875 -34.15625 L 9.671875 -21.4375 C 12.023438 -24.457031 14.925781 -25.96875 18.375 -25.96875 C 20.644531 -25.96875 22.675781 -25.429688 24.46875 -24.359375 C 26.257812 -23.296875 27.664062 -21.757812 28.6875 -19.75 C 29.71875 -17.75 30.234375 -15.394531 30.234375 -12.6875 C 30.234375 -9.976562 29.71875 -7.617188 28.6875 -5.609375 C 27.664062 -3.609375 26.257812 -2.070312 24.46875 -1 C 22.675781 0.0703125 20.644531 0.609375 18.375 0.609375 C 16.570312 0.609375 14.910156 0.207031 13.390625 -0.59375 C 11.878906 -1.40625 10.546875 -2.5625 9.390625 -4.0625 L 9.390625 -1.859375 C 9.390625 -1.179688 9.253906 -0.703125 8.984375 -0.421875 C 8.722656 -0.140625 8.28125 0 7.65625 0 L 3.296875 0 C 2.671875 0 2.222656 -0.140625 1.953125 -0.421875 C 1.691406 -0.703125 1.5625 -1.179688 1.5625 -1.859375 C 1.5625 -2.546875 1.691406 -3.03125 1.953125 -3.3125 C 2.222656 -3.59375 2.671875 -3.734375 3.296875 -3.734375 L 5.546875 -3.734375 L 5.546875 -32.296875 L 2.75 -32.296875 C 2.125 -32.296875 1.675781 -32.4375 1.40625 -32.71875 C 1.144531 -33 1.015625 -33.476562 1.015625 -34.15625 C 1.015625 -34.832031 1.144531 -35.3125 1.40625 -35.59375 C 1.675781 -35.882812 2.125 -36.03125 2.75 -36.03125 Z M 18.09375 -21.90625 C 16.46875 -21.90625 15.015625 -21.539062 13.734375 -20.8125 C 12.460938 -20.082031 11.46875 -19.019531 10.75 -17.625 C 10.03125 -16.238281 9.671875 -14.59375 9.671875 -12.6875 C 9.671875 -10.78125 10.03125 -9.128906 10.75 -7.734375 C 11.46875 -6.347656 12.460938 -5.285156 13.734375 -4.546875 C 15.015625 -3.816406 16.46875 -3.453125 18.09375 -3.453125 C 19.71875 -3.453125 21.113281 -3.84375 22.28125 -4.625 C 23.457031 -5.40625 24.351562 -6.488281 24.96875 -7.875 C 25.582031 -9.269531 25.890625 -10.875 25.890625 -12.6875 C 25.890625 -14.5 25.582031 -16.097656 24.96875 -17.484375 C 24.351562 -18.878906 23.457031 -19.960938 22.28125 -20.734375 C 21.113281 -21.515625 19.71875 -21.90625 18.09375 -21.90625 Z M 18.09375 -21.90625 "/></g></g></g><g fill="#000000" fill-opacity="1"><g transform="translate(136.364432, 101.327534)"><g><path d="M 17.109375 -25.96875 C 19.765625 -25.96875 22.03125 -25.429688 23.90625 -24.359375 C 25.78125 -23.296875 27.21875 -21.816406 28.21875 -19.921875 C 29.226562 -18.023438 29.804688 -15.84375 29.953125 -13.375 C 29.953125 -12.75 29.816406 -12.304688 29.546875 -12.046875 C 29.285156 -11.796875 28.847656 -11.671875 28.234375 -11.671875 L 8.34375 -11.671875 C 8.476562 -8.941406 9.289062 -6.875 10.78125 -5.46875 C 12.269531 -4.070312 14.378906 -3.375 17.109375 -3.375 C 18.785156 -3.375 20.445312 -3.585938 22.09375 -4.015625 C 23.75 -4.453125 25.195312 -5.023438 26.4375 -5.734375 C 26.75 -5.898438 27.035156 -5.984375 27.296875 -5.984375 C 27.929688 -5.984375 28.453125 -5.5 28.859375 -4.53125 C 29.023438 -4.144531 29.109375 -3.796875 29.109375 -3.484375 C 29.109375 -2.753906 28.703125 -2.1875 27.890625 -1.78125 C 26.484375 -1.070312 24.816406 -0.492188 22.890625 -0.046875 C 20.972656 0.390625 19.046875 0.609375 17.109375 0.609375 C 14.335938 0.609375 11.972656 0.078125 10.015625 -0.984375 C 8.054688 -2.046875 6.566406 -3.570312 5.546875 -5.5625 C 4.523438 -7.5625 4.015625 -9.9375 4.015625 -12.6875 C 4.015625 -15.300781 4.570312 -17.613281 5.6875 -19.625 C 6.800781 -21.644531 8.347656 -23.207031 10.328125 -24.3125 C 12.304688 -25.414062 14.566406 -25.96875 17.109375 -25.96875 Z M 17.109375 -22 C 14.859375 -22 12.992188 -21.425781 11.515625 -20.28125 C 10.046875 -19.132812 9.082031 -17.546875 8.625 -15.515625 L 25.40625 -15.515625 C 25.019531 -17.617188 24.132812 -19.222656 22.75 -20.328125 C 21.363281 -21.441406 19.484375 -22 17.109375 -22 Z M 17.109375 -22 "/></g></g></g><g fill="#000000" fill-opacity="1"><g transform="translate(170.085056, 101.327534)"><g><path d="M 17.578125 -36.03125 C 18.191406 -36.03125 18.628906 -35.882812 18.890625 -35.59375 C 19.160156 -35.3125 19.296875 -34.832031 19.296875 -34.15625 L 19.296875 -3.734375 L 28.125 -3.734375 C 28.738281 -3.734375 29.175781 -3.59375 29.4375 -3.3125 C 29.707031 -3.03125 29.84375 -2.546875 29.84375 -1.859375 C 29.84375 -1.179688 29.707031 -0.703125 29.4375 -0.421875 C 29.175781 -0.140625 28.738281 0 28.125 0 L 6.59375 0 C 5.96875 0 5.519531 -0.140625 5.25 -0.421875 C 4.988281 -0.703125 4.859375 -1.179688 4.859375 -1.859375 C 4.859375 -2.546875 4.988281 -3.03125 5.25 -3.3125 C 5.519531 -3.59375 5.96875 -3.734375 6.59375 -3.734375 L 15.1875 -3.734375 L 15.1875 -32.296875 L 7.6875 -32.296875 C 7.0625 -32.296875 6.613281 -32.4375 6.34375 -32.71875 C 6.082031 -33 5.953125 -33.476562 5.953125 -34.15625 C 5.953125 -34.832031 6.082031 -35.3125 6.34375 -35.59375 C 6.613281 -35.882812 7.0625 -36.03125 7.6875 -36.03125 Z M 17.578125 -36.03125 "/></g></g></g><g fill="#000000" fill-opacity="1"><g transform="translate(231.964812, 101.327534)"><g><path d="M 18.953125 -25.375 C 19.566406 -25.375 20.003906 -25.238281 20.265625 -24.96875 C 20.535156 -24.707031 20.671875 -24.265625 20.671875 -23.640625 L 20.671875 -5.625 L 28.390625 -5.625 C 28.828125 -5.625 29.164062 -5.546875 29.40625 -5.390625 C 29.644531 -5.234375 29.820312 -4.953125 29.9375 -4.546875 C 30.0625 -4.148438 30.125 -3.566406 30.125 -2.796875 C 30.125 -2.023438 30.0625 -1.4375 29.9375 -1.03125 C 29.820312 -0.632812 29.644531 -0.363281 29.40625 -0.21875 C 29.164062 -0.0703125 28.828125 0 28.390625 0 L 6.3125 0 C 5.875 0 5.535156 -0.0703125 5.296875 -0.21875 C 5.054688 -0.363281 4.875 -0.632812 4.75 -1.03125 C 4.632812 -1.4375 4.578125 -2.023438 4.578125 -2.796875 C 4.578125 -3.566406 4.632812 -4.148438 4.75 -4.546875 C 4.875 -4.953125 5.054688 -5.234375 5.296875 -5.390625 C 5.535156 -5.546875 5.875 -5.625 6.3125 -5.625 L 13.8125 -5.625 L 13.8125 -19.75 L 7.96875 -19.75 C 7.519531 -19.75 7.175781 -19.820312 6.9375 -19.96875 C 6.707031 -20.113281 6.53125 -20.382812 6.40625 -20.78125 C 6.289062 -21.1875 6.234375 -21.773438 6.234375 -22.546875 C 6.234375 -23.316406 6.289062 -23.898438 6.40625 -24.296875 C 6.53125 -24.703125 6.707031 -24.984375 6.9375 -25.140625 C 7.175781 -25.296875 7.519531 -25.375 7.96875 -25.375 Z M 17.171875 -37.421875 C 18.460938 -37.421875 19.367188 -37.285156 19.890625 -37.015625 C 20.421875 -36.753906 20.6875 -36.316406 20.6875 -35.703125 L 20.6875 -31.1875 C 20.6875 -30.570312 20.441406 -30.128906 19.953125 -29.859375 C 19.472656 -29.597656 18.59375 -29.46875 17.3125 -29.46875 C 16.019531 -29.46875 15.113281 -29.597656 14.59375 -29.859375 C 14.070312 -30.128906 13.8125 -30.570312 13.8125 -31.1875 L 13.8125 -35.703125 C 13.8125 -36.335938 14.050781 -36.78125 14.53125 -37.03125 C 15.007812 -37.289062 15.890625 -37.421875 17.171875 -37.421875 Z M 17.171875 -37.421875 "/></g></g></g><g fill="#000000" fill-opacity="1"><g transform="translate(265.685436, 101.327534)"><g><path d="M 21.140625 -36.15625 C 23.921875 -36.15625 26.703125 -35.632812 29.484375 -34.59375 C 29.941406 -34.425781 30.285156 -34.191406 30.515625 -33.890625 C 30.742188 -33.585938 30.859375 -33.179688 30.859375 -32.671875 C 30.859375 -32.203125 30.769531 -31.632812 30.59375 -30.96875 C 30.375 -30.164062 30.101562 -29.585938 29.78125 -29.234375 C 29.457031 -28.890625 29.078125 -28.71875 28.640625 -28.71875 C 28.421875 -28.71875 28.15625 -28.765625 27.84375 -28.859375 C 25.519531 -29.566406 23.488281 -29.921875 21.75 -29.921875 C 19.382812 -29.921875 18.203125 -28.40625 18.203125 -25.375 L 18.203125 -23.71875 L 26.75 -23.71875 C 27.382812 -23.71875 27.828125 -23.503906 28.078125 -23.078125 C 28.335938 -22.660156 28.46875 -21.890625 28.46875 -20.765625 C 28.46875 -19.628906 28.335938 -18.851562 28.078125 -18.4375 C 27.828125 -18.03125 27.382812 -17.828125 26.75 -17.828125 L 18.203125 -17.828125 L 18.203125 -5.625 L 25.921875 -5.625 C 26.359375 -5.625 26.695312 -5.546875 26.9375 -5.390625 C 27.175781 -5.234375 27.351562 -4.953125 27.46875 -4.546875 C 27.59375 -4.148438 27.65625 -3.566406 27.65625 -2.796875 C 27.65625 -2.023438 27.59375 -1.4375 27.46875 -1.03125 C 27.351562 -0.632812 27.175781 -0.363281 26.9375 -0.21875 C 26.695312 -0.0703125 26.359375 0 25.921875 0 L 6.3125 0 C 5.875 0 5.535156 -0.0703125 5.296875 -0.21875 C 5.054688 -0.363281 4.875 -0.632812 4.75 -1.03125 C 4.632812 -1.4375 4.578125 -2.023438 4.578125 -2.796875 C 4.578125 -3.566406 4.632812 -4.148438 4.75 -4.546875 C 4.875 -4.953125 5.054688 -5.234375 5.296875 -5.390625 C 5.535156 -5.546875 5.875 -5.625 6.3125 -5.625 L 11.34375 -5.625 L 11.34375 -17.828125 L 6.3125 -17.828125 C 5.675781 -17.828125 5.226562 -18.03125 4.96875 -18.4375 C 4.707031 -18.851562 4.578125 -19.628906 4.578125 -20.765625 C 4.578125 -21.890625 4.707031 -22.660156 4.96875 -23.078125 C 5.226562 -23.503906 5.675781 -23.71875 6.3125 -23.71875 L 11.34375 -23.71875 L 11.34375 -25.734375 C 11.34375 -29.128906 12.175781 -31.710938 13.84375 -33.484375 C 15.519531 -35.265625 17.953125 -36.15625 21.140625 -36.15625 Z M 21.140625 -36.15625 "/></g></g></g><g fill="#000000" fill-opacity="1"><g transform="translate(299.406061, 101.327534)"><g><path d="M 30.890625 -25.375 C 31.328125 -25.375 31.664062 -25.296875 31.90625 -25.140625 C 32.144531 -24.984375 32.320312 -24.703125 32.4375 -24.296875 C 32.5625 -23.898438 32.625 -23.316406 32.625 -22.546875 C 32.625 -21.773438 32.5625 -21.1875 32.4375 -20.78125 C 32.320312 -20.382812 32.144531 -20.113281 31.90625 -19.96875 C 31.664062 -19.820312 31.328125 -19.75 30.890625 -19.75 L 29.140625 -19.75 L 18.609375 1.5625 C 17.328125 4.144531 16.101562 6.109375 14.9375 7.453125 C 13.78125 8.796875 12.457031 9.742188 10.96875 10.296875 C 9.476562 10.859375 7.550781 11.179688 5.1875 11.265625 C 4.53125 11.273438 4.03125 11.023438 3.6875 10.515625 C 3.351562 10.003906 3.1875 9.070312 3.1875 7.71875 C 3.1875 6.78125 3.304688 6.109375 3.546875 5.703125 C 3.796875 5.304688 4.148438 5.085938 4.609375 5.046875 C 6.054688 4.960938 7.234375 4.691406 8.140625 4.234375 C 9.046875 3.773438 9.867188 3.046875 10.609375 2.046875 C 11.347656 1.046875 12.242188 -0.457031 13.296875 -2.46875 L 4.890625 -19.75 L 2.828125 -19.75 C 2.390625 -19.75 2.050781 -19.820312 1.8125 -19.96875 C 1.570312 -20.113281 1.390625 -20.382812 1.265625 -20.78125 C 1.148438 -21.1875 1.09375 -21.773438 1.09375 -22.546875 C 1.09375 -23.316406 1.148438 -23.898438 1.265625 -24.296875 C 1.390625 -24.703125 1.570312 -24.984375 1.8125 -25.140625 C 2.050781 -25.296875 2.390625 -25.375 2.828125 -25.375 L 13.921875 -25.375 C 14.359375 -25.375 14.695312 -25.296875 14.9375 -25.140625 C 15.175781 -24.984375 15.351562 -24.703125 15.46875 -24.296875 C 15.59375 -23.898438 15.65625 -23.316406 15.65625 -22.546875 C 15.65625 -21.773438 15.59375 -21.1875 15.46875 -20.78125 C 15.351562 -20.382812 15.175781 -20.113281 14.9375 -19.96875 C 14.695312 -19.820312 14.359375 -19.75 13.921875 -19.75 L 12.28125 -19.75 L 17.046875 -9.3125 L 21.828125 -19.75 L 20.34375 -19.75 C 19.90625 -19.75 19.566406 -19.820312 19.328125 -19.96875 C 19.085938 -20.113281 18.90625 -20.382812 18.78125 -20.78125 C 18.664062 -21.1875 18.609375 -21.773438 18.609375 -22.546875 C 18.609375 -23.316406 18.664062 -23.898438 18.78125 -24.296875 C 18.90625 -24.703125 19.085938 -24.984375 19.328125 -25.140625 C 19.566406 -25.296875 19.90625 -25.375 20.34375 -25.375 Z M 30.890625 -25.375 "/></g></g></g></svg>